PathFileType	4	(X/Y/Z)	4_coords_data.trc
DataRate	CameraRate	NumFrames	NumMarkers	Units	OrigDataRate	OrigDataStartFrame	OrigNumFrames
30.0	30.0	7	21	m	30.0	10	47
Frame#	Time	THUMB_TIP	THUMB_IP	THUMB_MCP	THUMB_CMC	INDEX_TIP	INDEX_DIP	INDEX_PIP	INDEX_MCP	MIDDLE_TIP	MIDDLE_DIP	MIDDLE_PIP	MIDDLE_MCP	RING_TIP	RING_DIP	RING_PIP	RING_MCP	PINKY_TIP	PINKY_DIP	PINKY_PIP	PINKY_MCP	WRIST
X1	Y1	Z1	X2	Y2	Z2	X3	Y3	Z3	X4	Y4	Z4	X5	Y5	Z5	X6	Y6	Z6	X7	Y7	Z7	X8	Y8	Z8	X9	Y9	Z9	X10	Y10	Z10	X11	Y11	Z11	X12	Y12	Z12	X13	Y13	Z13	X14	Y14	Z14	X15	Y15	Z15	X16	Y16	Z16	X17	Y17	Z17	X18	Y18	Z18	X19	Y19	Z19	X20	Y20	Z20	X21	Y21	Z21
8	0.2999999999999987	0.4887240031740071	-0.017599458556416092	-0.1683861685344335	0.4933989763193297	-0.018881592018184734	-0.14592507417381234	0.47931588657434365	-0.027857005654556843	-0.11965858348147407	0.4787398714225489	-0.027215170651483378	-0.07505873758068943	0.49825110363822867	-0.01577928273524798	-0.09883242648557333	0.5157838115397898	-0.015785448543093716	-0.10337160213995727	0.5302980837052278	-0.0009782948265051328	-0.11758757679247084	0.4932177926488801	0.019962695158709853	-0.11799136834223733	0.501313564665603	-0.017283941094450195	-0.0854202867275326	0.5187547079039319	-0.012544243835401425	-0.08657864437207113	0.5379171144539732	0.006267510821927114	-0.09790691043195071	0.5013878402193327	0.03199166614121696	-0.09773994337088032	0.5007928880358282	-0.006887636914911344	-0.07325643664055004	0.5185149306296561	-0.006217753102556567	-0.07001908247696276	0.5392334734255997	0.006626341974272365	-0.07511331304398977	0.5112529612821823	0.03580912417788418	-0.07553402321576491	0.5046907116904343	-0.00783632681561397	-0.05535996089620199	0.521801497568855	-0.007368048699174845	-0.05531846115517136	0.5367899880002325	0.007331600563793006	-0.055596822672331736	0.5111080603681855	0.032420559383433134	-0.052152089090658826	0.4622830810018608	-0.023011742144276925	-0.051989820119430985
9	0.33333333333333187	0.48878572128894293	-0.017500611024523827	-0.1683661093972285	0.4934331800387478	-0.01881748719383336	-0.14590131551160457	0.47932517071936154	-0.027840436503405952	-0.11966450056007133	0.47873047640694855	-0.027219760352254374	-0.07506460033832002	0.4982512198703698	-0.015789567878228716	-0.0988455675025155	0.5157815773528404	-0.0157970672829002	-0.1033938100527444	0.5303039076762468	-0.000994795107272184	-0.11760663853325803	0.4932278843533878	0.019954092726078176	-0.11799223820717003	0.5013235089036189	-0.017297141936521765	-0.08542854620937629	0.5187655419953558	-0.012562582749563456	-0.08659449257689983	0.5379366587925787	0.006238144568451842	-0.09792632751484653	0.5014149377657428	0.03197288477773741	-0.09773934997994349	0.5008454750441964	-0.006861073445581067	-0.0734324952955332	0.5185406857220713	-0.006220301524396121	-0.07004591436328839	0.5392614941961053	0.006620519137383263	-0.07513918442430323	0.5112709755962592	0.03579406347351566	-0.0755341697144083	0.5047258723425857	-0.007827158327026074	-0.055399440332571936	0.5218366891419303	-0.007360767876781638	-0.05535016146096	0.5368349717515792	0.00732880316469986	-0.05563307554398378	0.5111359973941466	0.03239592628183263	-0.052156654020846904	0.462283081001861	-0.023011742144276925	-0.051989820119430985
10	0.3666666666666651	0.488824593802891	-0.01739451098032896	-0.16835568412122126	0.4934435100301594	-0.018749986122014173	-0.1458872996660417	0.4793206166389995	-0.027817302839078684	-0.1196737983773094	0.47871891169552194	-0.02721479928843451	-0.07507374298908759	0.49822679241331813	-0.015771770925270268	-0.09885865343008171	0.5157563857730321	-0.015787142204168325	-0.10340982035372442	0.5302834672545472	-0.0009992593245761183	-0.11763276859130484	0.4932122041579984	0.019958437524633887	-0.11799675925475217	0.5013247997481212	-0.017279402781780417	-0.08543220243810706	0.5187653617706076	-0.012545308736618743	-0.08662180317422247	0.537938660096547	0.006244768707895587	-0.09796760287868045	0.5014118128365429	0.03197193292405365	-0.0977431666089481	0.5008607874257365	-0.0068910650110461935	-0.0734855788946896	0.518549182743249	-0.00620408308200171	-0.07007255575961224	0.5392729523271103	0.006629353392324178	-0.07517238531504505	0.5112704232453806	0.03579171238670842	-0.07554119001883663	0.5047451942495209	-0.007778028595580078	-0.055430733304190904	0.5218570726168238	-0.007352772200889257	-0.05537804799879065	0.5368622350607388	0.0073293065949946445	-0.055684121949293675	0.5111527601395645	0.03238108418184904	-0.05217487843875118	0.4622830810018609	-0.023011742144276925	-0.051989820119430985
11	0.39999999999999825	0.4888301231768467	-0.01729193435768217	-0.16835738944501122	0.4934267240560858	-0.018685660216885114	-0.14588676887978502	0.4792973028031472	-0.02779902367279985	-0.11969276075621976	0.4786933982578394	-0.027211216333743793	-0.07509253898735058	0.49817653671214	-0.015787117802615214	-0.0988659760612024	0.5156987938044242	-0.015774044731580394	-0.1034453139485732	0.53022777351349	-0.0010053672395838875	-0.11768626710315333	0.49316279027473475	0.019963996309433685	-0.11801627295146683	0.5013009637102516	-0.0172519281661625	-0.08545849329898492	0.5187357658196533	-0.012502648659882376	-0.0866717614380309	0.5379180557003171	0.006264609360792761	-0.09804010922122208	0.5013800813548424	0.03197548691421537	-0.09776601587517136	0.500838590863313	-0.006779742249350185	-0.07358008938703292	0.5185204909512987	-0.006168741162600466	-0.07011929656594651	0.5392571202585432	0.006639018327585178	-0.07523138819418318	0.5112506497288574	0.03579799761728897	-0.07556660342724841	0.5047283207075706	-0.007708831100404323	-0.05545263747083434	0.521841513419078	-0.007337622847673586	-0.055423660723074086	0.5368616974802323	0.007328691594197356	-0.055748176456455745	0.511155243570759	0.032378784511410186	-0.052204940190111904	0.4622830810018609	-0.023011742144276925	-0.051989820119430985
12	0.43333333333333146	0.4888112574619562	-0.017188343791422533	-0.16836053466834744	0.4933850508644696	-0.018622060336606072	-0.1458877762533421	0.4792580656494674	-0.02778236600592554	-0.11970883263867854	0.47867223420812555	-0.027207685669884518	-0.07510819874146024	0.49812235554823203	-0.015801079530708195	-0.09885891684950648	0.5156354243660696	-0.01575809102418113	-0.10347308769268015	0.5301613146371219	-0.0010143373532210953	-0.11774298862167765	0.49310699652198	0.019974421746313586	-0.11803555397090576	0.5012981593704721	-0.01722274088589515	-0.08548602694335561	0.5187323031113065	-0.012478294662689349	-0.08672734159284368	0.5379023747636678	0.006285075852233368	-0.09812268405207092	0.5013507386967101	0.031975843911206225	-0.09779063229595147	0.5008391570730729	-0.006745468145067934	-0.07378483211455766	0.518489788602	-0.006149505669179267	-0.07016543501595446	0.5392352125053492	0.00663641359924716	-0.07529648115993298	0.5112328194863471	0.03579966145619229	-0.07559945581850847	0.5047079360043438	-0.0077277514325888585	-0.05548037590164956	0.5218203825796793	-0.007322624733728356	-0.05547370026225901	0.5368602604947934	0.007323047145605055	-0.05581777365757773	0.5111600781262411	0.03237438024557726	-0.05223799892480557	0.462283081001861	-0.023011742144276925	-0.051989820119430985
13	0.4666666666666647	0.48877587226552865	-0.017097920369508968	-0.16835996953677357	0.493330490258752	-0.018578252235296522	-0.14588633893326536	0.4792022117334501	-0.02778187148293776	-0.11972328982472408	0.4786510714562273	-0.027213492248378324	-0.07512213300743359	0.4980769068390346	-0.015856956430756575	-0.09885833759294455	0.5155756974798686	-0.015747282617006975	-0.1035252742501998	0.5301007466181155	-0.0010311527804655052	-0.1178245155995013	0.4930535023109849	0.01997077504284317	-0.1180628660815925	0.5012698761847517	-0.017220299697990438	-0.08552841099942887	0.5187019854794509	-0.012471852321956911	-0.08678292805977611	0.5378699178769698	0.006274484984348017	-0.09820985919645414	0.5013170831504206	0.03196295533414706	-0.09783477848370464	0.5008256041636648	-0.006747383755223879	-0.0738536817964941	0.5184744706216748	-0.006139364953206661	-0.07022768870718393	0.5392246482281738	0.006628422390792643	-0.07538459811468384	0.5112194105522506	0.03578927673542409	-0.07565305780671067	0.5047022133152319	-0.00771856971675533	-0.05554164167699621	0.5218149064507153	-0.007323938800889107	-0.0555419433760701	0.5368727136014007	0.007302938479220256	-0.055901003044345476	0.5111798682129581	0.03235667600739245	-0.052285566318991394	0.4622830810018608	-0.023011742144276925	-0.051989820119430985
14	0.4999999999999978	0.48878790135463546	-0.017024155247628237	-0.16834806848488942	0.4933246697244891	-0.01854950044622039	-0.14587383757961864	0.47918778364971937	-0.027794238897089096	-0.11972994224850908	0.4786384395932909	-0.027226176502730737	-0.07512875923478418	0.4980710194088547	-0.015922085800915697	-0.09884518546415638	0.5155598545934024	-0.01576111238935729	-0.10354781573332456	0.5300860536212817	-0.0010756952476596027	-0.11787743185437849	0.49305189435998664	0.01994969859436957	-0.11807732081504363	0.501277061501052	-0.017216974079504288	-0.08555884748759657	0.5187107984191259	-0.012475252434453799	-0.08681618312784667	0.5378817855417762	0.0062523043649453935	-0.09826875572392557	0.5013251379332196	0.031934859840231145	-0.09786159373812386	0.5008440611454689	-0.006650876736346789	-0.074059813051638	0.5184592523634032	-0.006163423993470252	-0.07025620579285435	0.5392303994105612	0.006564616004319013	-0.07542693370679548	0.5112505442401049	0.03574990685930379	-0.07568642619269073	0.504691107646504	-0.007787678333946224	-0.05552864950087594	0.5218026710103377	-0.007349566241891647	-0.05557821804233415	0.5368953511429235	0.007241091341646411	-0.05594664265524307	0.5112260052618188	0.03231576432880334	-0.05230948612529246	0.4622830810018609	-0.023011742144276925	-0.051989820119430985
